<svg version="1.0" xmlns="http://www.w3.org/2000/svg" width="2155" height="554" viewBox="0 0 182.000000 174.000000" preserveAspectRatio="xMidYMid meet">
    <metadata>
Created by potrace 1.16, written by Peter Selinger 2001-2019
</metadata>
    <g transform="translate(0.000000,174.000000) scale(0.100000,-0.100000)" fill="#000000" stroke="none">
        <path d="M836 1461 c-59 -60 -67 -84 -34 -105 14 -8 23 -5 47 18 l30 29 3
-139 3 -139 30 0 30 0 5 134 c5 132 5 133 24 112 30 -33 76 -22 76 19 0 23
-112 130 -136 130 -11 0 -45 -26 -78 -59z" />
        <path d="M421 1316 c-8 -9 -11 -45 -9 -103 l3 -88 30 0 c27 0 30 4 35 38 l5
38 80 -81 c44 -45 88 -86 98 -91 22 -12 57 5 57 29 0 10 -41 58 -90 107 l-91
90 38 5 c34 5 38 8 38 35 l0 30 -91 3 c-70 2 -94 -1 -103 -12z" />
        <path d="M1209 1314 c-19 -23 1 -48 45 -54 l37 -5 -91 -90 c-49 -49 -90 -97
-90 -107 0 -9 9 -22 21 -28 18 -10 31 -1 115 81 77 76 94 89 94 70 0 -33 18
-61 40 -61 28 0 40 30 40 105 0 101 -4 105 -109 105 -69 0 -92 -4 -102 -16z" />
        <path d="M822 1004 c-134 -67 -146 -252 -23 -339 38 -27 51 -30 116 -30 67 0
76 3 111 31 62 50 78 78 82 147 3 50 0 72 -17 104 -52 104 -164 140 -269 87z
m144 -64 c102 -50 95 -192 -12 -229 -48 -17 -82 -10 -123 25 -75 63 -50 185
45 214 42 12 44 12 90 -10z" />
        <path d="M276 910 c-35 -33 -56 -60 -56 -74 0 -33 111 -139 141 -134 32 4 36
34 8 64 l-22 24 117 0 c124 0 156 8 156 40 0 32 -32 40 -156 40 l-117 0 22 24
c29 31 24 60 -10 64 -20 2 -40 -10 -83 -48z" />
        <path d="M1447 953 c-14 -13 -6 -47 15 -70 l21 -23 -136 0 c-128 0 -136 -1
-142 -20 -14 -43 8 -50 148 -50 l130 0 -22 -24 c-27 -28 -25 -69 3 -74 22 -5
146 113 146 138 0 23 -112 130 -136 130 -11 0 -24 -3 -27 -7z" />
        <path d="M575 540 l-90 -91 -5 43 c-4 34 -9 44 -26 46 -36 5 -45 -19 -42 -115
l3 -88 100 0 100 0 0 30 c0 28 -3 30 -39 33 l-39 3 92 93 c97 98 111 128 61
134 -20 2 -43 -16 -115 -88z" />
        <path d="M1117 623 c-21 -20 0 -54 80 -135 78 -78 85 -88 62 -88 -38 0 -63
-22 -55 -48 7 -21 14 -22 106 -22 80 0 99 3 104 16 10 26 7 154 -4 175 -22 41
-70 12 -70 -43 0 -19 -15 -8 -88 65 -81 80 -115 101 -135 80z" />
        <path d="M880 521 c-5 -11 -10 -72 -10 -137 0 -113 -1 -116 -18 -101 -27 25
-68 22 -75 -4 -5 -17 8 -36 55 -85 34 -35 68 -64 77 -64 9 0 45 29 80 64 50
51 62 68 56 85 -8 27 -42 27 -72 -1 l-23 -21 0 129 c0 134 -5 154 -42 154 -9
0 -22 -9 -28 -19z" />
    </g>
</svg>
